<svg data-v-423bf9ae="" xmlns="http://www.w3.org/2000/svg" viewBox="0 0 581 91" class="iconLeft"><!----><!----><!----><g data-v-423bf9ae="" id="9f701d28-ca95-43f9-8a09-5d29800ac60b" fill="white" transform="matrix(5.319148540496826,0,0,5.319148540496826,108.56383514404297,18.19148826599121)"><path d="M7.35 1.22L4.75 1.22L4.75 10.50L2.87 10.50L2.87 1.22L0.27 1.22L0.27-0.42L7.35-0.42L7.35 1.22ZM14 9.68L14 9.68L14 9.68Q13.16 10.68 11.48 10.68L11.48 10.68L11.48 10.68Q9.80 10.68 8.96 9.68L8.96 9.68L8.96 9.68Q8.12 8.68 8.12 7.01L8.12 7.01L8.12 6.57L8.12 6.57Q8.12 4.89 8.96 3.89L8.96 3.89L8.96 3.89Q9.80 2.90 11.48 2.90L11.48 2.90L11.48 2.90Q13.16 2.90 14 3.89L14 3.89L14 3.89Q14.84 4.89 14.84 6.57L14.84 6.57L14.84 7.01L14.84 7.01Q14.84 8.68 14 9.68ZM9.94 7.01L9.94 7.01Q9.94 9.09 11.48 9.09L11.48 9.09L11.48 9.09Q13.02 9.09 13.02 7.01L13.02 7.01L13.02 6.57L13.02 6.57Q13.02 4.48 11.48 4.48L11.48 4.48L11.48 4.48Q9.94 4.48 9.94 6.57L9.94 6.57L9.94 7.01ZM19.81 2.90L19.81 2.90L19.81 2.90Q19.85 2.90 19.93 2.91L19.93 2.91L19.93 2.91Q20.01 2.91 20.02 2.91L20.02 2.91L20.02 4.68L19.71 4.68L19.71 4.68Q18.51 4.68 17.99 5.46L17.99 5.46L17.99 10.50L16.17 10.50L16.17 5.18L16.04 3.08L17.65 3.08L17.81 3.98L17.81 3.98Q18.55 2.90 19.81 2.90ZM27.40 10.50L25.79 10.50L25.65 9.65L25.65 9.65Q24.75 10.68 23.23 10.68L23.23 10.68L23.23 10.68Q22.11 10.68 21.55 10.07L21.55 10.07L21.55 10.07Q20.99 9.45 20.99 8.50L20.99 8.50L20.99 8.36L20.99 8.36Q20.99 7.24 21.67 6.73L21.67 6.73L21.67 6.73Q22.34 6.22 23.58 6.03L23.58 6.03L25.47 5.74L25.47 5.71L25.47 5.71Q25.47 4.98 25.19 4.65L25.19 4.65L25.19 4.65Q24.92 4.31 24.23 4.31L24.23 4.31L24.23 4.31Q23.00 4.31 23.00 5.53L23.00 5.53L21.27 5.53L21.27 5.40L21.27 5.40Q21.27 4.33 21.96 3.61L21.96 3.61L21.96 3.61Q22.65 2.90 24.28 2.90L24.28 2.90L24.28 2.90Q25.93 2.90 26.61 3.61L26.61 3.61L26.61 3.61Q27.29 4.33 27.29 5.71L27.29 5.71L27.29 8.40L27.40 10.50ZM23.86 9.18L23.86 9.18L23.86 9.18Q24.89 9.18 25.47 8.41L25.47 8.41L25.47 6.85L23.91 7.10L23.91 7.10Q22.81 7.28 22.81 8.16L22.81 8.16L22.81 8.27L22.81 8.27Q22.81 8.65 23.07 8.92L23.07 8.92L23.07 8.92Q23.34 9.18 23.86 9.18ZM33.38 4.76L33.38 5.32L33.38 5.32Q33.38 7.24 33.84 8.14L33.84 8.14L33.84 8.14Q34.30 9.04 35.43 9.04L35.43 9.04L35.56 9.04L35.56 9.04Q37.32 9.04 37.32 6.82L37.32 6.82L39.21 6.82L39.21 6.96L39.21 6.96Q39.21 8.88 38.28 9.78L38.28 9.78L38.28 9.78Q37.35 10.68 35.45 10.68L35.45 10.68L35.45 10.68Q33.39 10.68 32.42 9.41L32.42 9.41L32.42 9.41Q31.46 8.13 31.46 5.32L31.46 5.32L31.46 4.76L31.46 4.76Q31.46 1.95 32.42 0.67L32.42 0.67L32.42 0.67Q33.39-0.60 35.45-0.60L35.45-0.60L35.45-0.60Q37.35-0.60 38.28 0.31L38.28 0.31L38.28 0.31Q39.21 1.23 39.21 3.21L39.21 3.21L39.21 3.68L37.32 3.68L37.32 3.68Q37.32 2.32 36.93 1.68L36.93 1.68L36.93 1.68Q36.53 1.04 35.56 1.04L35.56 1.04L35.43 1.04L35.43 1.04Q34.30 1.04 33.84 1.94L33.84 1.94L33.84 1.94Q33.38 2.84 33.38 4.76L33.38 4.76ZM46.19 9.68L46.19 9.68L46.19 9.68Q45.35 10.68 43.67 10.68L43.67 10.68L43.67 10.68Q41.99 10.68 41.15 9.68L41.15 9.68L41.15 9.68Q40.31 8.68 40.31 7.01L40.31 7.01L40.31 6.57L40.31 6.57Q40.31 4.89 41.15 3.89L41.15 3.89L41.15 3.89Q41.99 2.90 43.67 2.90L43.67 2.90L43.67 2.90Q45.35 2.90 46.19 3.89L46.19 3.89L46.19 3.89Q47.03 4.89 47.03 6.57L47.03 6.57L47.03 7.01L47.03 7.01Q47.03 8.68 46.19 9.68ZM42.13 7.01L42.13 7.01Q42.13 9.09 43.67 9.09L43.67 9.09L43.67 9.09Q45.21 9.09 45.21 7.01L45.21 7.01L45.21 6.57L45.21 6.57Q45.21 4.48 43.67 4.48L43.67 4.48L43.67 4.48Q42.13 4.48 42.13 6.57L42.13 6.57L42.13 7.01ZM54.70 5.42L54.70 10.50L52.89 10.50L52.89 5.71L52.89 5.71Q52.89 5.15 52.60 4.82L52.60 4.82L52.60 4.82Q52.30 4.48 51.72 4.48L51.72 4.48L51.72 4.48Q50.69 4.48 50.18 5.33L50.18 5.33L50.18 10.50L48.36 10.50L48.36 5.18L48.23 3.08L49.84 3.08L50.01 4.06L50.01 4.06Q50.81 2.90 52.42 2.90L52.42 2.90L52.42 2.90Q53.56 2.90 54.13 3.61L54.13 3.61L54.13 3.61Q54.70 4.33 54.70 5.42L54.70 5.42ZM57.75 6.57L57.75 7.01L57.75 7.01Q57.75 9.09 59.25 9.09L59.25 9.09L59.25 9.09Q59.91 9.09 60.23 8.73L60.23 8.73L60.23 8.73Q60.56 8.37 60.56 7.80L60.56 7.80L62.29 7.80L62.29 8.09L62.29 8.09Q62.29 9.23 61.50 9.95L61.50 9.95L61.50 9.95Q60.70 10.68 59.21 10.68L59.21 10.68L59.21 10.68Q57.57 10.68 56.75 9.68L56.75 9.68L56.75 9.68Q55.93 8.68 55.93 7.01L55.93 7.01L55.93 6.57L55.93 6.57Q55.93 4.89 56.75 3.89L56.75 3.89L56.75 3.89Q57.57 2.90 59.21 2.90L59.21 2.90L59.21 2.90Q60.72 2.90 61.50 3.65L61.50 3.65L61.50 3.65Q62.29 4.41 62.29 5.60L62.29 5.60L62.29 5.91L60.56 5.91L60.56 5.91Q60.56 5.24 60.23 4.86L60.23 4.86L60.23 4.86Q59.91 4.48 59.25 4.48L59.25 4.48L59.25 4.48Q57.75 4.48 57.75 6.57L57.75 6.57ZM67.23 2.90L67.23 2.90L67.23 2.90Q67.27 2.90 67.35 2.91L67.35 2.91L67.35 2.91Q67.42 2.91 67.44 2.91L67.44 2.91L67.44 4.68L67.13 4.68L67.13 4.68Q65.93 4.68 65.41 5.46L65.41 5.46L65.41 10.50L63.59 10.50L63.59 5.18L63.46 3.08L65.07 3.08L65.23 3.98L65.23 3.98Q65.97 2.90 67.23 2.90ZM75.15 6.61L75.15 7.46L70.25 7.46L70.25 7.46Q70.35 9.27 71.92 9.27L71.92 9.27L71.92 9.27Q72.62 9.27 73.02 8.93L73.02 8.93L73.02 8.93Q73.43 8.58 73.43 8.12L73.43 8.12L75.15 8.12L75.15 8.18L75.15 8.18Q75.15 9.23 74.29 9.95L74.29 9.95L74.29 9.95Q73.43 10.68 71.90 10.68L71.90 10.68L71.90 10.68Q70.18 10.68 69.31 9.66L69.31 9.66L69.31 9.66Q68.43 8.64 68.43 6.97L68.43 6.97L68.43 6.61L68.43 6.61Q68.43 4.94 69.30 3.92L69.30 3.92L69.30 3.92Q70.17 2.90 71.83 2.90L71.83 2.90L71.83 2.90Q73.47 2.90 74.31 3.92L74.31 3.92L74.31 3.92Q75.15 4.94 75.15 6.61L75.15 6.61ZM71.79 4.31L71.79 4.31L71.79 4.31Q70.36 4.31 70.25 6.12L70.25 6.12L73.32 6.12L73.32 6.12Q73.23 4.31 71.79 4.31ZM78.95 0.98L78.95 3.08L81.00 3.08L81.00 4.68L78.95 4.68L78.95 7.88L78.95 7.88Q78.95 8.58 79.24 8.83L79.24 8.83L79.24 8.83Q79.53 9.09 80.15 9.09L80.15 9.09L80.15 9.09Q80.67 9.09 80.86 8.99L80.86 8.99L80.86 10.50L80.86 10.50Q80.50 10.68 79.72 10.68L79.72 10.68L79.72 10.68Q77.13 10.68 77.13 8.08L77.13 8.08L77.13 4.68L75.99 4.68L75.99 3.08L77.13 3.08L77.13 0.98L78.95 0.98ZM88.79 6.61L88.79 7.46L83.89 7.46L83.89 7.46Q83.99 9.27 85.55 9.27L85.55 9.27L85.55 9.27Q86.25 9.27 86.66 8.93L86.66 8.93L86.66 8.93Q87.07 8.58 87.07 8.12L87.07 8.12L88.79 8.12L88.79 8.18L88.79 8.18Q88.79 9.23 87.93 9.95L87.93 9.95L87.93 9.95Q87.07 10.68 85.54 10.68L85.54 10.68L85.54 10.68Q83.82 10.68 82.94 9.66L82.94 9.66L82.94 9.66Q82.07 8.64 82.07 6.97L82.07 6.97L82.07 6.61L82.07 6.61Q82.07 4.94 82.94 3.92L82.94 3.92L82.94 3.92Q83.80 2.90 85.47 2.90L85.47 2.90L85.47 2.90Q87.11 2.90 87.95 3.92L87.95 3.92L87.95 3.92Q88.79 4.94 88.79 6.61L88.79 6.61ZM85.43 4.31L85.43 4.31L85.43 4.31Q84 4.31 83.89 6.12L83.89 6.12L86.95 6.12L86.95 6.12Q86.87 4.31 85.43 4.31Z"></path></g><!----><g data-v-423bf9ae="" id="9a79eed5-da10-40fe-908c-ed43b03a3f3f" transform="matrix(1.1508952379226685,0,0,1.1508952379226685,-12.705118179321289,-12.720208168029785)" stroke="none" fill="white"><style></style><path d="M88.5 11.4H12.3c-.6 0-1 .4-1 1v76.2c0 .6.4 1 1 1h76.2c.6 0 1-.4 1-1V12.4c0-.6-.4-1-1-1zm-52 56.9c0 .1-.1.2-.1.3s0 .2.1.3v18.8H13.3V51h23.2v17.3zm0-35.9c0 .1-.1.2-.1.3s0 .2.1.3v16H13.3V13.4h23.2v19zm25.2 55.2H38.5v-18h23.2v18zm0-20H38.5V33.7h23.2v33.9zm0-35.9H38.5V13.4h23.2v18.3zm25.8 55.9H63.7V51h23.8v36.6zm0-38.6H63.7V13.4h23.8V49z"></path></g><!----></svg>